<?xml version="1.0" encoding="utf-8"?>
<!-- Generator: Adobe Illustrator 21.0.0, SVG Export Plug-In . SVG Version: 6.00 Build 0)  -->
<svg version="1.1" id="Layer_1" xmlns="http://www.w3.org/2000/svg" xmlns:xlink="http://www.w3.org/1999/xlink" x="0px" y="0px"
	 viewBox="0 0 2002.8 1238.5" style="enable-background:new 0 0 2002.8 1238.5;" xml:space="preserve">
<style type="text/css">
	.st0{fill:#9ECC3B;}
	.st1{enable-background:new    ;}
	.st2{fill:#202011;}
	.st3{fill:#9DCB3B;}
	.st4{fill:#9ECB3B;}
	.st5{fill:#212114;}
</style>
<title>Artboard 1</title>
<path class="st0" d="M1887.7,45.6c0,0-142.1-47.5-258,57.3c0,0-139.4,112.3-59,252.8c0,0,126.2,23,196-91.4c0,0,39.7-64.9,49.2-132
	C1815.9,132.3,1823.6,62,1887.7,45.6z"/>
<g class="st1">
	<path class="st2" d="M121.3,223l-1.7,7.1c-5.6,1.2-10.2,1.9-13.8,1.9c-3.4,0-9.1-0.4-17-1.1c-6-0.5-11.3-0.7-16-0.7
		c-8.2,0-16.6,0.7-25.2,2.2l1.7-6.9c8.2-0.8,14.2-2.6,18-5.2c2.7-1.9,5-5.2,6.9-9.8c1.9-4.6,6.3-20.8,13-48.4l15.7-66.2l0.9-3.1
		c-4.8-0.2-8.4-0.4-10.9-0.4c-15.1,0-27.1,1.7-35.9,5c-8.9,3.3-15.5,8.2-19.9,14.5c-4.4,6.3-6.7,13.2-6.7,20.5c0,2.6,0.4,5,1.3,7.1
		c0.7,1.5,2.4,3.9,5.4,7.3c2.8,3.1,4.2,5.9,4.2,8.5c0,2.3-0.8,4.2-2.4,5.8c-1.6,1.6-3.6,2.4-5.9,2.4c-3.4,0-6.2-1.7-8.3-5
		c-3.1-4.9-4.7-11.2-4.7-18.7c0-10.2,3.1-20,9.2-29.6c6.2-9.6,14.6-17,25.4-22.2C65.2,82.6,78.3,80,93.8,80c7.3,0,19.1,1.1,35.1,3.2
		c11.4,1.5,19.7,2.2,24.8,2.2c5.1,0,8.8-0.9,10.9-2.6c2.1-1.7,3.2-4.1,3.2-7c0-0.6-0.1-1.7-0.4-3.5c-0.2-1.6-0.4-2.6-0.4-3.1
		c0-2.2,0.7-4.1,2.2-5.6c1.5-1.5,3.2-2.2,5.3-2.2c2.4,0,4.5,0.9,6.1,2.7c1.6,1.8,2.4,4.3,2.4,7.4c0,6.3-3.3,11.8-9.9,16.4
		c-6.6,4.6-17.6,6.9-33.1,6.9c-5.5,0-11.5-0.2-17.7-0.7c-0.8,3-3.4,13.2-7.7,30.5l-10.7,43.2L97.3,194l-6.7,30.1
		c5.5,0.7,10,1,13.6,1C109.6,225.1,115.3,224.4,121.3,223z"/>
	<path class="st2" d="M229.3,128.3h17.4L235.2,172c-6.8,25.3-10.2,39.8-10.2,43.3c0,1.6,0.4,2.8,1.1,3.6c0.7,0.8,1.5,1.2,2.4,1.2
		c1.4,0,3-0.6,4.9-1.9c2.7-1.9,7.8-6.7,15.3-14.5l4,4.6c-16.4,17.4-28.5,26.1-36.2,26.1c-2.6,0-4.8-1-6.7-3.1
		c-1.8-2-2.8-4.9-2.8-8.7c0-4.3,0.9-10.1,2.7-17.4c-7.3,8.5-16.2,15.9-26.9,22.4c-7.1,4.2-13.3,6.4-18.5,6.4c-2.9,0-5.1-1-6.7-2.9
		c-1.6-1.9-2.4-5-2.4-9.1c0-3.3,0.4-6.8,1.1-10.5c1.1-5.3,3.8-15.8,8.1-31.6c5.5-20.1,8.2-32.1,8.2-36.1c0-2.3-0.8-3.5-2.4-3.5
		c-1.5,0-3.5,0.8-6,2.3c-2.5,1.5-6.9,5.3-13,11.2l-5.4-4.4c10.9-10,19.3-16.5,25-19.7s10.4-4.7,13.9-4.7c2,0,3.5,0.7,4.8,2.2
		c1.2,1.5,1.8,3.7,1.8,6.8c0,5.8-2.9,19.9-8.8,42.4c-5.2,20.3-7.8,31.8-7.8,34.6c0,1.8,0.5,3.3,1.7,4.5c1.1,1.3,2.3,1.9,3.6,1.9
		c4.6,0,11-3.9,19.4-11.6c8.4-7.7,13.9-16.5,16.5-26.3L229.3,128.3z"/>
	<path class="st2" d="M265.8,154l-5.4-4.2c8.1-9.2,15.6-15.7,22.3-19.5c6.7-3.9,12.4-5.8,17.2-5.8c2.6,0,4.6,0.6,6,1.7
		c1.4,1.2,2.1,2.7,2.1,4.7c0,2.4-2.6,12.7-7.9,30.7c-8.6,29.6-12.9,47.4-12.9,53.5c0,1.2,0.3,2.1,0.9,2.9c0.6,0.8,1.2,1.2,1.8,1.2
		c2.6,0,9.3-5.2,20.1-15.5l4.8,4.7c-11.2,10.7-19.3,17.6-24.5,20.6c-5.1,3-9.3,4.5-12.6,4.5c-2.9,0-5.1-0.9-6.8-2.7
		c-1.7-1.8-2.5-4.4-2.5-7.6c0-10.4,6.1-35.8,18.4-76.3c0.6-1.9,0.9-3.6,0.9-5.1c0-1.7-0.7-2.5-2.2-2.5c-1.6,0-3.5,0.7-5.6,2
		C277.6,142.6,273,146.9,265.8,154z M313.9,71.4c2.5,0,4.6,0.9,6.2,2.6c1.6,1.7,2.4,3.9,2.4,6.6c0,3.7-1.2,6.9-3.7,9.7
		c-2.5,2.8-5.3,4.2-8.4,4.2c-2.4,0-4.5-0.9-6.1-2.6c-1.6-1.7-2.4-4-2.4-6.9c0-3.7,1.2-6.9,3.5-9.6C307.9,72.7,310.7,71.4,313.9,71.4
		z"/>
	<path class="st2" d="M325.7,154.4l-4.2-4.4c10.5-10.2,18.8-17,25-20.3c6.2-3.3,11.5-5,15.9-5c1.7,0,3.1,0.4,4,1.1s1.5,1.6,1.5,2.6
		c0,0.7-0.2,2.1-0.6,4l-5.5,25.1c8.3-9.4,18.7-18.2,31.3-26.4c6.7-4.2,12.2-6.4,16.5-6.4c3.2,0,5.7,1,7.5,3.1c1.8,2.1,2.7,5.1,2.7,9
		c0,2.6-0.4,5.5-1.1,8.7c-1.3,5.4-4.7,17.2-10.2,35.3c-5.2,17-7.8,28.3-7.8,33.8c0,1.7,0.2,3,0.7,3.8c0.5,0.9,1.2,1.3,2.1,1.3
		c2.4,0,6.1-2.3,11.1-7c3.6-3.3,7.2-6.4,10.8-9.2l3.1,4.5c-7.5,8.5-15.3,15.2-23.4,20.4c-5.1,3.3-9.4,5-12.7,5
		c-3.1,0-5.5-1.1-7.2-3.4c-1.7-2.3-2.6-6-2.6-11.2c0-7.4,4.5-25.9,13.6-55.3c2.8-10.5,4.2-16.6,4.2-18.4c0-2.6-1.5-3.9-4.5-3.9
		c-3.3,0-7.5,1.8-12.6,5.3c-7.7,5.2-14.1,11.3-19.2,18.3c-3.3,4.5-6,11.7-8.2,21.5l-9.9,43.6h-18.2c3.4-12.5,6.4-24.5,8.9-35.9
		l10.9-47.5c0.4-1.9,0.6-3.3,0.6-4.1c0-2.2-0.8-3.4-2.4-3.4c-1.3,0-3.2,0.9-5.6,2.6C334.8,145.3,330.1,149.5,325.7,154.4z"/>
	<path class="st2" d="M501.4,198.8l4,5.5c-20,19.4-37.1,29.1-51.4,29.1c-5.8,0-10.2-2-13.3-6s-4.6-10.4-4.6-19.2
		c0-17.8,5.3-35.5,15.9-53.2c11.9-20.1,26.1-30.1,42.7-30.1c5.8,0,10.2,1.5,13.3,4.4c3.1,3,4.6,7,4.6,12.2c0,5.4-1.8,10.7-5.5,16
		s-10.2,10.7-19.7,16.4c-4.7,2.7-14.9,7.7-30.4,14.9c-0.7,4.5-1.1,8.8-1.1,12.9c0,5.9,0.9,10,2.8,12.4c1.8,2.3,4.5,3.5,8,3.5
		c3.3,0,7-1,11-2.9C483.2,211.9,491.1,206.7,501.4,198.8z M458.6,180.6c13.1-6,23-12.4,29.6-19.4c4.5-4.8,6.7-9.6,6.7-14.4
		c0-3.6-0.9-6.4-2.8-8.6s-4.2-3.2-7.2-3.2c-3,0-6,1.2-8.8,3.5c-3.8,3.1-7.1,7.7-9.7,14C462.8,161.8,460.1,171.2,458.6,180.6z"/>
	<path class="st2" d="M526.2,154.4L522,150c10.5-10.2,18.8-17,25-20.3c6.2-3.3,11.5-5,15.9-5c1.7,0,3.1,0.4,4,1.1s1.5,1.6,1.5,2.6
		c0,0.7-0.2,2.1-0.6,4l-5.5,25.1c8.3-9.4,18.7-18.2,31.3-26.4c6.7-4.2,12.2-6.4,16.5-6.4c3.2,0,5.7,1,7.5,3.1c1.8,2.1,2.7,5.1,2.7,9
		c0,2.6-0.4,5.5-1.1,8.7c-1.3,5.4-4.7,17.2-10.2,35.3c-5.2,17-7.8,28.3-7.8,33.8c0,1.7,0.2,3,0.7,3.8c0.5,0.9,1.2,1.3,2.1,1.3
		c2.4,0,6.1-2.3,11.1-7c3.6-3.3,7.2-6.4,10.8-9.2l3.1,4.5c-7.5,8.5-15.3,15.2-23.4,20.4c-5.1,3.3-9.4,5-12.7,5
		c-3.1,0-5.5-1.1-7.2-3.4c-1.7-2.3-2.6-6-2.6-11.2c0-7.4,4.5-25.9,13.6-55.3c2.8-10.5,4.2-16.6,4.2-18.4c0-2.6-1.5-3.9-4.5-3.9
		c-3.3,0-7.5,1.8-12.6,5.3c-7.7,5.2-14.1,11.3-19.2,18.3c-3.3,4.5-6,11.7-8.2,21.5l-9.9,43.6H528c3.4-12.5,6.4-24.5,8.9-35.9
		l10.9-47.5c0.4-1.9,0.6-3.3,0.6-4.1c0-2.2-0.8-3.4-2.4-3.4c-1.3,0-3.2,0.9-5.6,2.6C535.3,145.3,530.6,149.5,526.2,154.4z"/>
</g>
<g class="st1">
	<path class="st2" d="M311.9,312.6l1-4c7.4-0.6,16.1-1.9,26.1-4.1c-2.9,6.8-5.5,14.6-7.7,23.3l-6.7,25.8
		c-4.8,18.6-10.2,32.7-16.3,42.2c5.8,1,11,1.6,15.4,1.6c11.9,0,22.2-2.3,31-6.8c8.8-4.5,15.8-11.1,21-19.8
		c5.2-8.7,7.8-18.3,7.8-28.8c0-13.7-4.4-24.8-13.2-33.2c-8.8-8.4-20.3-12.5-34.6-12.5c-12,0-23.3,2.6-33.9,7.8
		c-10.6,5.2-19.1,12-25.3,20.6c-6.2,8.5-9.3,16.8-9.3,24.9c0,7.9,3.8,13.7,11.4,17.4c2.2,1.1,3.6,2.1,4.2,2.9c0.6,0.8,1,1.8,1,3
		c0,1.5-0.6,2.8-1.9,3.9c-1.3,1.1-2.7,1.7-4.3,1.7c-3.6,0-7.1-2.2-10.5-6.5c-4.6-6-6.9-12.2-6.9-18.6c0-10.6,3.5-20.9,10.4-30.8
		c7-9.9,16.6-17.8,29-23.6c12.4-5.9,26.2-8.8,41.4-8.8c18.7,0,33.6,4.5,44.7,13.6c11.1,9.1,16.6,20.5,16.6,34.3
		c0,12.8-3.9,24.5-11.6,35.2c-7.7,10.7-17.1,18.3-28,22.8c-10.9,4.5-21.9,6.8-32.8,6.8c-3.5,0-9.6-0.3-18.3-0.9
		c-7.3-0.5-14.3-0.7-20.8-0.7c-3.1,0-7.7,0.1-13.9,0.3l2.3-4.5c6.2-0.3,10.1-0.8,11.6-1.5c1.5-0.7,2.8-1.8,3.9-3.4
		c2-2.8,4.6-9,8-18.5l7-24.1l8.1-30.2c0.4-1.5,0.6-2.7,0.6-3.8c0-1-0.3-1.8-1-2.4c-0.7-0.6-1.6-0.9-2.8-0.9
		C314.2,312.3,313.3,312.4,311.9,312.6z"/>
	<path class="st2" d="M462.5,378.3l3.4,4.1C449.3,396.8,435,404,423.2,404c-4.8,0-8.5-1.5-11-4.4c-2.5-3-3.8-7.7-3.8-14.2
		c0-13.2,4.4-26.3,13.2-39.4c9.9-14.9,21.7-22.3,35.5-22.3c4.8,0,8.5,1.1,11,3.3c2.5,2.2,3.8,5.2,3.8,9c0,4-1.5,8-4.6,11.8
		c-3.1,3.9-8.5,7.9-16.4,12.1c-3.9,2-12.3,5.7-25.2,11c-0.6,3.3-0.9,6.5-0.9,9.5c0,4.4,0.8,7.4,2.3,9.2c1.5,1.7,3.7,2.6,6.7,2.6
		c2.8,0,5.8-0.7,9.2-2.1C447.4,388.1,453.9,384.2,462.5,378.3z M426.9,364.9c10.9-4.4,19.1-9.2,24.6-14.3c3.7-3.6,5.6-7.1,5.6-10.6
		c0-2.7-0.8-4.8-2.3-6.3c-1.5-1.6-3.5-2.4-6-2.4c-2.5,0-5,0.9-7.3,2.6c-3.2,2.3-5.9,5.7-8,10.4C430.4,351,428.2,357.9,426.9,364.9z"
		/>
	<path class="st2" d="M583.2,348.6l-13.7,49.1c3.2,0.4,5.9,0.6,7.8,0.6c3,0,6.7-0.5,11.1-1.4l-1,4.5c-4.5,0.9-8.1,1.3-10.6,1.3
		c-2.6,0-6.5-0.2-11.7-0.6c-4.5-0.4-8.3-0.6-11.3-0.6c-5.4,0-11.7,0.7-18.8,2.1l1.5-5.2c7.5-1.7,12.3-3.4,14.5-5.1
		c3.4-2.7,6-7.3,7.8-14l14.2-51.7c1.8-6.6,2.6-10.5,2.6-11.7c0-1.1-0.4-1.9-1.3-2.5c-0.8-0.6-2.5-0.8-5-0.7l1.3-4.4
		c6.8-0.1,15-1.2,24.5-3.4c-0.8,2.3-1.9,5.8-3.2,10.4l-7.6,27.3c3.3,0.6,6,0.9,8.2,0.9c8.5,0,15.7-2.7,21.8-8.1
		c6-5.4,9.1-11.8,9.1-19.2c0-5.7-2.4-10.5-7.3-14.2c-4.8-3.7-11.4-5.5-19.8-5.5c-10.6,0-21,2.3-31.2,7
		c-10.2,4.7-17.8,10.5-22.9,17.4c-5.1,6.9-7.6,14.2-7.6,21.8c0,5.7,2.6,10.7,7.8,14.8c2.6,2,4.3,3.5,4.9,4.4s0.9,1.9,0.9,3
		c0,1.3-0.5,2.4-1.6,3.4c-1.1,1-2.3,1.4-3.8,1.4c-3.7,0-7-1.9-9.8-5.8c-3.7-5.1-5.5-11.3-5.5-18.7c0-9.5,2.9-18.3,8.6-26.5
		c5.8-8.2,14.5-15,26.2-20.3s24-8,37-8c12.1,0,22,2.1,29.8,6.2c7.8,4.1,11.7,10.2,11.7,18.3c0,7.6-3.6,14.6-10.7,21.2
		c-7.1,6.5-17,10.7-29.5,12.6c3.1,5.7,5.1,9.5,6,11.5c1.4,3.3,3.6,8.9,6.5,16.8c6.8,18.5,13.9,31.5,21.3,39.1
		c5.4,5.5,11.3,8.3,17.6,8.3c6.5,0,10.7-2.7,12.5-8c1.1-3.4,2.1-5.5,3-6.3c1.3-1.1,2.7-1.7,4.4-1.7s3,0.5,4.1,1.6
		c1.1,1,1.7,2.3,1.7,3.8c0,3.8-2.3,7.5-6.9,10.9c-4.6,3.5-10.5,5.2-17.8,5.2c-6.6,0-12.9-1.4-18.9-4.3c-6-2.9-11.8-7.6-17.5-14.2
		c-5.7-6.6-10.6-14.5-14.8-23.7c-2.1-4.6-5.2-13.1-9.2-25.4c-2.4-7.5-4-12-4.6-13.5l-2.5-0.2C585.2,348.5,584.4,348.5,583.2,348.6z"
		/>
	<path class="st2" d="M650.6,342.6l-3.3-4.3l7.5-4.6c7.3-4.6,12.5-7.5,15.5-8.8c1.7-0.7,3.3-1.1,4.7-1.1c1.4,0,2.8,0.7,4.1,2.2
		c6,6.8,11,16.1,15.1,27.7c4.1,11.6,6.1,22.9,6.1,33.8c0,1.4-0.1,3.6-0.2,6.5c11.5-19.2,17.2-34.4,17.2-45.7c0-2.3-0.6-5.5-1.7-9.3
		c-1.2-4.3-1.8-7.4-1.8-9.3c0-1.8,0.6-3.3,1.9-4.4c1.3-1.2,2.8-1.8,4.7-1.8c2.4,0,4.3,0.8,5.7,2.5c1.5,1.7,2.2,4,2.2,7.1
		c0,8-2,17.9-6,29.7c-4,11.9-10.3,24.6-18.9,38.3c-8.6,13.7-16.4,23.8-23.5,30.4c-7.1,6.6-13.9,11.4-20.5,14.2
		c-6.6,2.9-12.9,4.3-18.8,4.3c-4.5,0-7.8-0.8-10.1-2.3c-2.3-1.5-3.4-3.3-3.4-5.4c0-1.8,0.9-3.4,2.6-4.8c1.8-1.3,4.1-2,7.1-2
		c2.3,0,5.5,0.4,9.5,1.2c4.3,0.9,7.2,1.3,8.8,1.3c4.1,0,8.5-1.6,13.1-4.7c6.3-4.3,11.3-9.5,15-15.4c3.7-6,5.5-12,5.5-18.1
		c0-8.6-1.4-18.8-4.1-30.9c-2.7-12-6.6-21.2-11.6-27.5c-2.5-3.3-5.2-4.9-8-4.9C661.5,336.5,656.7,338.6,650.6,342.6z"/>
	<path class="st2" d="M737.2,345.5l-3.5-3.2c8.7-7.6,15.6-12.6,20.8-15.1c5.2-2.5,9.6-3.7,13.2-3.7c1.4,0,2.5,0.3,3.4,0.8
		c0.8,0.6,1.2,1.2,1.2,1.9c0,0.6-0.2,1.5-0.5,3l-4.6,18.6c6.9-7,15.6-13.5,26-19.5c5.6-3.1,10.1-4.7,13.7-4.7c2.6,0,4.7,0.8,6.2,2.3
		c1.5,1.5,2.2,3.8,2.2,6.7c0,1.9-0.3,4.1-0.9,6.5c-1.1,4-3.9,12.7-8.5,26.2c-4.3,12.6-6.5,20.9-6.5,25.1c0,1.3,0.2,2.2,0.6,2.8
		c0.4,0.6,1,0.9,1.7,0.9c2,0,5.1-1.7,9.3-5.2c3-2.5,6-4.7,9-6.8l2.5,3.3c-6.2,6.3-12.7,11.3-19.4,15.1c-4.3,2.5-7.8,3.7-10.6,3.7
		c-2.6,0-4.6-0.8-6-2.5c-1.4-1.7-2.1-4.5-2.1-8.3c0-5.5,3.8-19.1,11.3-41c2.3-7.8,3.5-12.3,3.5-13.6c0-1.9-1.3-2.9-3.8-2.9
		c-2.7,0-6.2,1.3-10.5,3.9c-6.4,3.8-11.7,8.3-16,13.5c-2.7,3.3-5,8.6-6.8,15.9l-8.2,32.3h-15.2c2.8-9.3,5.3-18.1,7.4-26.6l9.1-35.2
		c0.3-1.4,0.5-2.4,0.5-3.1c0-1.7-0.7-2.5-2-2.5c-1.1,0-2.6,0.7-4.7,2C744.8,338.7,740.9,341.8,737.2,345.5z"/>
	<path class="st2" d="M885.9,381.5l2.1,5.4c-16.1,11.5-29.8,17.3-40.9,17.3c-5.9,0-10.2-1.9-12.9-5.7c-2.7-3.8-4-8.7-4-14.5
		c0-9.7,2.8-19.8,8.5-30.1c5.7-10.3,12.6-18.2,20.8-23.7c6.4-4.3,13.6-6.4,21.6-6.4c5,0,8.8,0.9,11.4,2.6c2.6,1.7,3.9,3.8,3.9,6.3
		c0,1.9-0.7,3.5-2,4.7c-1.4,1.2-3.3,1.8-5.7,1.8c-2.4,0-5.4-1-9.2-3c-3.9-2.1-7.1-3.1-9.7-3.1c-3.3,0-6.6,1.4-9.9,4.1
		c-3.3,2.7-6.4,8-9.4,15.9c-3,7.9-4.5,15.8-4.5,23.7c0,5.9,1.3,10.4,3.8,13.6c1.8,2.5,4.4,3.7,7.7,3.7
		C865.4,394.1,874.9,389.9,885.9,381.5z"/>
	<path class="st2" d="M916.6,401.5h-15.2l13.3-50.4c6.4-25,10.7-40.4,12.7-46.2c2-5.8,4.4-10.6,7.2-14.4c2.8-3.8,6.3-7.1,10.6-10.1
		c4.2-3,8.8-5.2,13.7-6.8c4.9-1.6,9.2-2.4,13-2.4c3.5,0,6.2,0.6,7.9,1.8c1.7,1.2,2.6,2.9,2.6,4.9c0,1.7-0.8,3.2-2.3,4.4
		c-1.6,1.2-3.5,1.9-5.9,1.9c-3,0-7.5-0.5-13.5-1.4c-2-0.4-3.7-0.6-5.2-0.6c-2.1,0-4.1,0.7-5.9,2c-1.9,1.4-3.5,3.8-5,7.3
		c-1.5,3.5-3.5,10.7-6.1,21.8l-7.3,29.5c6.5-6.7,13.3-11.9,20.3-15.5c5.3-2.7,10.4-4.1,15.2-4.1c3.4,0,6.3,1.2,8.6,3.5
		c2.3,2.3,3.5,5.2,3.5,8.7c0,6.6-3.8,12.5-11.3,17.7s-19,8-34.5,8.3c5.2,2.1,9.4,4.4,12.5,6.9c3.1,2.5,6.2,6,9.2,10.4
		c3,4.4,6.9,11.8,11.6,22.2c5.6,12.3,10.9,20.6,15.7,24.6c4.7,4.1,10,6.1,15.7,6.1c3.3,0,6.1-0.7,8.2-2c2.2-1.3,3.3-2.7,3.3-4
		c0-0.9-0.3-2-1-3.5c-0.7-1.6-1.1-3-1.1-4.1c0-1.4,0.6-2.7,1.8-3.8s2.6-1.7,4.3-1.7c1.9,0,3.5,0.7,4.9,2.1c1.4,1.4,2,3.2,2,5.5
		c0,4.4-2.2,8.4-6.7,11.8c-4.5,3.5-10.3,5.2-17.5,5.2c-7.4,0-14-1.7-19.8-5.1c-5.8-3.4-11.3-8.8-16.4-16.3
		c-2.9-4.3-8-14.2-15.3-29.5c-3.4-7.3-6.4-12.7-9.1-16.4c-2.1-2.8-5-5.6-8.6-8.4L916.6,401.5z M927.4,357.7
		c9.1,0.1,16.5-0.7,22.1-2.4s9.7-3.9,12-6.7c2.4-2.8,3.6-5.8,3.6-9.1c0-2.3-0.7-4.2-2.1-5.6c-1.4-1.4-3.1-2.1-5-2.1
		c-6.4,0-16.1,6.5-29.2,19.4L927.4,357.7z"/>
</g>
<g class="st1">
	<path class="st2" d="M1097.1,362.5c3.5-3.5,6.9-6,10.3-7.6c3.4-1.6,6.3-2.4,8.9-2.4c3,0,5.4,1.1,7.2,3.3c1.8,2.2,2.7,5.5,2.7,9.9
		c0,6.4-1.7,12.7-5,18.8c-3.3,6.1-7.4,10.8-12.3,14c-4.9,3.2-9.6,4.8-14.3,4.8c-4,0-7.1-1.1-9.5-3.2c-2.4-2.1-3.5-4.8-3.5-8.2
		c0-2.7,0.6-6.4,1.7-11.2l7.6-31c1.8-7.6,4.2-13.3,7-17.3c2.8-4,6.5-7.1,11-9.5c4.6-2.4,8.9-3.5,13-3.5c2.4,0,4.2,0.4,5.4,1.1
		c1.1,0.8,1.7,1.8,1.7,3.1c0,1.2-0.5,2.1-1.5,2.9c-1,0.8-2.5,1.2-4.4,1.2c-1.4,0-3.9-0.3-7.4-0.9c-1.5-0.3-2.9-0.4-4.1-0.4
		c-2.2,0-3.9,1.1-5.2,3.2c-1,1.6-2.3,5.8-4.1,12.5L1097.1,362.5z M1109.8,359c-2.1,0-4.6,1.2-7.5,3.5c-2.9,2.3-5.6,6.4-8.2,12.2
		c-2.6,5.8-3.9,11.6-3.9,17.2c0,2.1,0.7,3.9,2.2,5.3c1.5,1.4,3.2,2.1,5.2,2.1c4.8,0,9-3.4,12.8-10.3s5.6-13.7,5.6-20.5
		c0-3.1-0.7-5.6-2.1-7.6C1112.9,359.6,1111.6,359,1109.8,359z"/>
	<path class="st2" d="M1162.7,357.8c-3.3,4.8-5.6,9-6.9,12.7c-1.3,3.7-1.9,7.3-1.9,11c0,3.4,0.8,8.6,2.4,15.8
		c9.5-6.6,16.2-12.7,20.2-18.4c4-5.7,5.9-10.7,5.9-14.8c0-1.2-0.5-2.7-1.5-4.6c-1.1-2-1.6-3.4-1.6-4.3c0-1,0.4-1.9,1.2-2.7
		s1.7-1.1,2.8-1.1c1.4,0,2.6,0.6,3.4,1.7c0.9,1.1,1.3,3,1.3,5.7c0,8.3-3.2,16.4-9.7,24.3c-8,9.7-18,17.1-30.2,22.4
		c-0.3-1.8-0.9-4.8-1.8-8.8c-1.8-8.1-2.6-13.7-2.6-16.9c0-4.2,1.1-8.2,3.2-12.2c2.1-3.9,5.3-7.3,9.5-10.2c-7.6,0.1-13,0.9-16.2,2.3
		c-2.3,1-3.5,2.2-3.5,3.6c0,0.5,0.3,1.5,0.9,2.8c0.4,0.9,0.6,1.7,0.6,2.3c0,0.6-0.3,1.2-0.9,1.7c-0.6,0.5-1.3,0.7-2.2,0.7
		c-1.1,0-2.1-0.4-2.8-1.3c-0.8-0.9-1.2-2-1.2-3.5c0-2.3,0.8-4.4,2.5-6.2c1.7-1.9,4.6-3.3,8.7-4.4s9.6-1.5,16.4-1.5
		c2.7-1.1,4.5-1.6,5.2-1.6c0.7,0,1.3,0.3,1.9,0.8c0.6,0.5,0.8,1.1,0.8,1.6C1166.6,355.8,1165.3,356.9,1162.7,357.8z"/>
	<path class="st2" d="M1210.6,362.5c3.5-3.5,6.9-6,10.3-7.6c3.4-1.6,6.3-2.4,8.9-2.4c3,0,5.4,1.1,7.2,3.3c1.8,2.2,2.7,5.5,2.7,9.9
		c0,6.4-1.7,12.7-5,18.8c-3.3,6.1-7.4,10.8-12.3,14c-4.9,3.2-9.6,4.8-14.3,4.8c-4,0-7.1-1.1-9.5-3.2c-2.4-2.1-3.5-4.8-3.5-8.2
		c0-2.7,0.6-6.4,1.7-11.2l7.6-31c1.8-7.6,4.2-13.3,7-17.3c2.8-4,6.5-7.1,11-9.5c4.6-2.4,8.9-3.5,13-3.5c2.4,0,4.2,0.4,5.4,1.1
		c1.1,0.8,1.7,1.8,1.7,3.1c0,1.2-0.5,2.1-1.5,2.9c-1,0.8-2.5,1.2-4.4,1.2c-1.4,0-3.9-0.3-7.4-0.9c-1.5-0.3-2.9-0.4-4.1-0.4
		c-2.2,0-3.9,1.1-5.2,3.2c-1,1.6-2.3,5.8-4.1,12.5L1210.6,362.5z M1223.3,359c-2.1,0-4.6,1.2-7.5,3.5c-2.9,2.3-5.6,6.4-8.2,12.2
		c-2.6,5.8-3.9,11.6-3.9,17.2c0,2.1,0.7,3.9,2.2,5.3c1.5,1.4,3.2,2.1,5.2,2.1c4.8,0,9-3.4,12.8-10.3s5.6-13.7,5.6-20.5
		c0-3.1-0.7-5.6-2.1-7.6C1226.4,359.6,1225.1,359,1223.3,359z"/>
	<path class="st2" d="M1290.4,351.3l4.3-0.8l-4.8,14.8c-1.9,5.9-3.8,12.7-5.5,20.4c-0.9,4.2-1.4,6.9-1.4,8.1c0,1.2,0.5,1.8,1.6,1.8
		c0.7,0,1.8-0.4,3.3-1.2c2.7-1.4,5.2-3.2,7.7-5.4l2.1,2.3c-4.9,4.1-8,6.5-9.4,7.4c-2.8,1.7-5.4,3-7.9,3.8c-1.6,0.5-3.2,0.8-4.8,0.8
		c-1.1,0-2-0.2-2.5-0.7c-0.6-0.5-0.8-1.2-0.8-2.1c0-0.6,0.2-1.4,0.5-2.4l2.6-8c-3.7,4-8.1,7.5-13.2,10.4c-3.1,1.8-6,2.7-8.6,2.7
		c-2.5,0-4.4-0.8-5.7-2.4c-1.8-2.1-2.7-5-2.7-8.4c0-4.1,1.2-8.7,3.6-13.8c2.4-5.1,5.7-9.7,9.8-13.8c4.1-4.1,8.4-7.2,12.9-9.1
		c3.5-1.5,7.9-2.2,13.4-2.2c1.4,0,2.8,0.1,4.2,0.2L1290.4,351.3z M1282.5,360.2c-2.3-0.4-4.3-0.6-5.9-0.6c-3.9,0-7.2,1-10.1,2.9
		c-2.9,1.9-5.6,5.4-8,10.4c-2.5,5-3.7,10-3.7,15c0,2.7,0.5,4.6,1.5,5.7c1,1.2,2.3,1.8,3.9,1.8c3,0,6.1-1.5,9.5-4.4
		c3.4-2.9,5.9-7.1,7.5-12.6L1282.5,360.2z"/>
</g>
<path class="st3" d="M271,74.2c0,0,2-40.9,48.5-48.5s62.1,5.4,79.5-12.9c0,0-7.9,103.6-104.9,92.9c0,0-10.8-6.6-9.1,19.1
	c0,0-7,1.2-6.2-6.6c0,0-8.7-61.8,82.1-73.4c0,0-49.3-7.5-80.8,38.5C280.1,83.3,272.2,97.4,271,74.2z"/>
<path class="st2" d="M1556.4,491.2c0,0,11.4,34.4,22,51.3c0,0,32.1,48-30.8,0.2c0,0-129.7-122.4-223.5-79.3c0,0-64.4,31.4-75.1,38
	c-15.1,10.8-34.6,13.2-51.8,6.3c0,0-54.8-40.9-110.7-2.4c0,0-136.8,86.4-251.4,25.8c-20.2-16.5-41.4-31.6-63.7-45.1
	c0,0-14.2-13.4-82.1,6.6c0,0-100.3,38.2-114.5-4.4c0,0-35.8-63.7-106.8-49.8c0,0,66.3-10.6,95.4,51.9c28,52.8,105.1,19.3,105.1,19.3
	c99.5-28.3,124.4,26.7,124.4,26.7c47,38.2,91.2,52.6,91.2,52.6c87.5,25.9,195.7-21.5,219.7-33.5s89.4,25.8,89.4,25.8
	c62.9,20.3,117.8-10.1,117.8-10.1c48.7-12.3,105.8-1.2,105.8-1.2c58.9,16.9,105.3,74.2,15.8,164.6s-235.9-0.4-235.9-0.4
	c-69.4-43.4-114.6,7.9-114.6,7.9c52.8-40.4,106.6-1,106.6-1c56.8,28.9,94.1,43.5,94.1,43.5c38,10.6-7.2,18-7.2,18
	c-208.2,70.2-196.3,113.3-196.3,113.3c21-26.6,64.9-47.9,64.9-47.9c173.5-73.3,259.3-75.2,259.3-75.2c24.9-1.2,35.9-17.2,35.9-17.2
	c48.7-60.3-6.8,31.8-6.8,31.8c-62.4,100.5-210.9,158.9-210.9,158.9c61.7-15.6,139-58.6,139-58.6c26.3-17.5,12.4,7.6,12.4,7.6
	c-22,64.8-11.4,66.7-11.4,66.7c27.2-87.3,61.1-117.2,61.1-117.2c27-21.5,38.2-38.8,38.2-38.8c14.1-26.4,26.5-2.3,26.5-2.3
	c53.8,62.7,25.1,174.4,25.1,174.4c-3.9,22.7-28.7,63.7-28.7,63.7c-46.2,118.3-43.9,176.9-43.9,176.9c19-103.3,60.4-185.1,60.4-185.1
	c26.9-53,45.8-132.1,45.8-132.1c2.5-22.9,12.4-0.6,12.4-0.6c168.1,168.8,205.7,197.8,206.3,198.4c-131.6-137.8-157.8-193-157.8-193
	c-23.4-56.1-46-60-46-60c-61-44.7-39.6-41-39.6-41c98.5,66.2,141.4,55.7,141.4,55.7c131.7-7.7,141.2-15.7,141.2-15.7
	c103.2-1.6,128.1,101.4,128.1,101.4c-3.4-109-113.2-116.7-113.2-116.7c118.4-42.9,162.5,35.9,162.5,35.9
	c-36.1-70.6-117.7-57.1-117.7-57.1c-175.5,23.6-178.6,17.6-178.6,17.6c-173.8-26.9-100.9-132.5-100.9-132.5
	c58.4-53.2,44.9-118.6,44.9-118.6c-8.7-45.4-51.5-100.2-51.5-100.2"/>
<path class="st0" d="M1306.3,310.2c0,0,54.6-69.1,148.8-38.5c0,0,63.1,22,62.1,79.5c0,0-29.5,33.4-96.7,16.8c0,0-26.2-5.8-57-33.5
	C1363.5,334.4,1337.5,300,1306.3,310.2z"/>
<path class="st0" d="M1853.2,360.3c0,0-45.6-71.2-157.9-59.4c0,0-80.4,0.3-88.8,97c0,0,34.6,41.4,100.8,29.4c0,0,48.1-11.1,76.4-41
	C1783.7,386.3,1818.3,344.6,1853.2,360.3z"/>
<path class="st2" d="M1553,398c-106.6-176.7-243.8-90.1-245.7-88.8c0,0,158.8-83.3,243.8,110.3C1551.1,419.4,1556.4,403.7,1553,398z
	"/>
<path class="st2" d="M1570.8,466.5c111.2-205.6,280.5-107.1,280.5-107.1s-154.3-103.7-282.9,81.2L1570.8,466.5z"/>
<path class="st4" d="M1557.9,359.8c11.5-50.2,30.7-106.2,30.7-106.2c98.6-230,291.5-207.2,291.5-207.2s-207-4.8-285.3,220.1
	c0,0-11.3,22.9-15.8,57.5C1579.1,324.1,1569.3,347.8,1557.9,359.8z"/>
<path class="st5" d="M1515.4,359.8c-86.8-104.1-208.1-50.6-208.1-50.6s107.5-63.7,205.2,34.9
	C1512.5,344.1,1517.6,357.5,1515.4,359.8z"/>
<path class="st5" d="M1599.9,400.3c120.9-129.4,251.3-41.8,251.3-41.8s-123.3-71.7-228.5,35.1
	C1614.9,394.9,1607.2,397.2,1599.9,400.3z"/>
<path class="st2" d="M1556.4,491.2c-24-96.3,33.3-237.7,33.3-237.7c98.6-230,291.5-207.2,291.5-207.2s-207-4.8-285.3,220.1
	c0,0-48.2,149-17.8,228.4"/>
</svg>
